<svg xmlns="http://www.w3.org/2000/svg" width="24" height="24" fill="none"><mask id="a" width="24" height="24" x="0" y="0" maskUnits="userSpaceOnUse" style="mask-type:alpha"><path  d="M0 0h24v24H0z"/></mask><g mask="url(#a)"><path  d="M3 22q-.824 0-1.412-.587A1.93 1.93 0 0 1 1 20V8q0-.824.587-1.412A1.93 1.93 0 0 1 3 6h3.15L8 4h6v2H8.875L7.05 8H3v12h16v-9h2v9q0 .824-.587 1.413A1.93 1.93 0 0 1 19 22zM19 8V6h-2V4h2V2h2v2h2v2h-2v2zm-8 10.5q1.875 0 3.188-1.312Q15.5 15.875 15.5 14t-1.312-3.187T11 9.5t-3.187 1.313T6.5 14t1.313 3.188T11 18.5m0-2q-1.05 0-1.775-.725T8.5 14t.725-1.775T11 11.5t1.775.725T13.5 14t-.725 1.775T11 16.5"/></g></svg>