<svg xmlns="http://www.w3.org/2000/svg" width="24" height="24" fill="none"><mask id="a" width="24" height="24" x="0" y="0" maskUnits="userSpaceOnUse" style="mask-type:alpha"><path fill="#D9D9D9" d="M0 0h24v24H0z"/></mask><g mask="url(#a)"><path fill="#1C1B1F" d="M7 18q-2.5 0-4.25-1.75T1 12t1.75-4.25T7 6h10q2.5 0 4.25 1.75T23 12t-1.75 4.25T17 18zm0-2h10q1.65 0 2.825-1.175T21 12t-1.175-2.825T17 8H7Q5.35 8 4.175 9.175T3 12t1.175 2.825T7 16m0-1q1.25 0 2.125-.875A2.9 2.9 0 0 0 10 12q0-1.25-.875-2.125A2.9 2.9 0 0 0 7 9q-1.25 0-2.125.875A2.9 2.9 0 0 0 4 12q0 1.25.875 2.125A2.9 2.9 0 0 0 7 15"/></g></svg>