<svg xmlns="http://www.w3.org/2000/svg" width="24" height="24" fill="none"><mask id="a" width="24" height="24" x="0" y="0" maskUnits="userSpaceOnUse" style="mask-type:alpha"><path fill="#D9D9D9" d="M0 0h24v24H0z"/></mask><g mask="url(#a)"><path fill="#FC3F32" d="M7 18q-2.5 0-4.25-1.75T1 12t1.75-4.25T7 6h10q2.5 0 4.25 1.75T23 12t-1.75 4.25T17 18zm10-3q1.25 0 2.125-.875A2.9 2.9 0 0 0 20 12q0-1.25-.875-2.125A2.9 2.9 0 0 0 17 9q-1.25 0-2.125.875A2.9 2.9 0 0 0 14 12q0 1.25.875 2.125A2.9 2.9 0 0 0 17 15"/></g></svg>