<svg width="24" height="24" viewBox="0 0 24 24" fill="none" xmlns="http://www.w3.org/2000/svg">
<mask id="mask0_15_390" style="mask-type:alpha" maskUnits="userSpaceOnUse" x="0" y="0" width="24" height="24">
<rect width="24" height="24" fill="#D9D9D9"/>
</mask>
<g mask="url(#mask0_15_390)">
<path d="M3 22C2.45 22 1.97917 21.8042 1.5875 21.4125C1.19583 21.0208 1 20.55 1 20V8C1 7.45 1.19583 6.97917 1.5875 6.5875C1.97917 6.19583 2.45 6 3 6H6.15L8 4H14V6H8.875L7.05 8H3V20H19V11H21V20C21 20.55 20.8042 21.0208 20.4125 21.4125C20.0208 21.8042 19.55 22 19 22H3ZM19 8V6H17V4H19V2H21V4H23V6H21V8H19ZM11 18.5C12.25 18.5 13.3125 18.0625 14.1875 17.1875C15.0625 16.3125 15.5 15.25 15.5 14C15.5 12.75 15.0625 11.6875 14.1875 10.8125C13.3125 9.9375 12.25 9.5 11 9.5C9.75 9.5 8.6875 9.9375 7.8125 10.8125C6.9375 11.6875 6.5 12.75 6.5 14C6.5 15.25 6.9375 16.3125 7.8125 17.1875C8.6875 18.0625 9.75 18.5 11 18.5ZM11 16.5C10.3 16.5 9.70833 16.2583 9.225 15.775C8.74167 15.2917 8.5 14.7 8.5 14C8.5 13.3 8.74167 12.7083 9.225 12.225C9.70833 11.7417 10.3 11.5 11 11.5C11.7 11.5 12.2917 11.7417 12.775 12.225C13.2583 12.7083 13.5 13.3 13.5 14C13.5 14.7 13.2583 15.2917 12.775 15.775C12.2917 16.2583 11.7 16.5 11 16.5Z" fill="#1C1B1F"/>
</g>
</svg>
